    <svg
      id="logo_horizontal_black"
      data-name="logo / horizontal / black"
      xmlns="http://www.w3.org/2000/svg"
      width="100"
      height="17.001"
      viewBox="0 0 100 17.001"
    >
      <path
        id="Fill_1"
        data-name="Fill 1"
        d="M91.788,17H88.5V.072H91.6l.008.017,4.848,9.1V.072h3.291V17H96.841l-.008-.017L91.788,7.5V17Zm-39.93,0H48.567V.072h3.106L56.53,9.184V.072h3.291V17H56.911l-.008-.017L51.858,7.5V17ZM29.537,17H26.172V.072h4.912a6.05,6.05,0,0,1,4.336,1.5,5.4,5.4,0,0,1,1.439,3.973v.145a5.119,5.119,0,0,1-2.629,4.76L37.269,17h-3.74L30.94,11.289h-1.4V17Zm0-13.9V8.361h1.276a2.424,2.424,0,0,0,2.68-2.644c0-1.739-.927-2.621-2.755-2.621ZM63.822,17H60.5l.011-.038L65.3,0h3.375L73.5,17H70.06l-.937-3.518h-4.39L63.822,17ZM66.952,5.165h0l-1.414,5.389h2.78L66.953,5.166ZM3.318,17H0l.01-.038L4.8,0H8.174L13,17H9.556L8.62,13.482H4.231L3.318,17ZM6.449,5.165h0L5.035,10.554H7.816L6.449,5.166ZM86.767,17h-3.34V.072h3.34V17Zm-4.3,0h-8.3V.072H77.54V13.927h4.93V17Zm-35.2,0H38.138V.072h9.034V3.121H41.478V6.964h5.029v3.048H41.478v3.94h5.793V17Zm-29.3,0h-4.3V.072h4.3c4.527,0,7.229,3.092,7.229,8.271v.386C25.2,13.908,22.494,17,17.967,17ZM17.036,3.072V14h.882a3.3,3.3,0,0,0,2.757-1.265,6.631,6.631,0,0,0,1.057-4.078V8.416a6.631,6.631,0,0,0-1.057-4.078,3.3,3.3,0,0,0-2.757-1.265Z"
        transform="translate(0 0)"
        fill="#0a0b09"
      />
    </svg>